<svg xmlns="http://www.w3.org/2000/svg" viewBox="0 0 766 362" role="img" aria-labelledby="t bundle-hash-scope">
  <title id="t">What the bundle hash covers and what verification repeats · 번들 해시가 덮는 것과 검증이 다시 하는 것</title>
  <desc id="bundle-hash-scope">EvidenceBundleV13Schema   separate, opt-in bundleVersion "1.3"
bundleHash = SHA256(canonicalJson(bundle with only bundleHash omitted))   evidenceBundleHash
  covered      source-artifact hash declarations · complete mapping and case proposals
               · complete supplied approval records · workflowState
               · event collection metadata · the claimed result and dataset hashes
  excluded     bundleHash itself, to avoid self-reference; nothing else
  consequence  a changed approval time changes bundleHash and leaves
               canonicalResultHash unchanged

verifyBundle(bundle as untrusted input, separately supplied CSV/JSON Lines bytes)
  strict shape → source byte hashes → re-parse rows → bind approvals to proposals
  → replay the deterministic engine → compare dataset, result and bundle hashes
  multi-mapping declaration → rejected until multi-source replay semantics exist
  hash equality ≠ authenticity, reviewer authentication or signature

번들 해시가 덮는 것과 검증이 다시 하는 것 도식입니다. 그림 안의 글자는 위 내용과 같습니다.</desc>
  <!--
    Generated by scripts/build-boundary-figures.mjs from boundary-figures.mjs.
    One file serves both languages: the words are identifiers, contract
    vocabulary and arrows, and each language brings its own alternative text.
    Literal hex, because CSS custom properties do not resolve inside a
    standalone SVG.
    #f7faf9 paper-1 | #ffffff paper-0 | #d0d7de ledger-rule
    #0c1513 ink-900 | #14211f ink-800 authorship-code | #263230 ink-700
    #0b6e6a teal-700 authorship-human
  -->
  <defs>
    <style>
      text{font-family:"JetBrains Mono","IBM Plex Mono",ui-monospace,SFMono-Regular,Consolas,monospace;font-size:13px;white-space:pre}
      .eyebrow{font-family:"IBM Plex Sans","IBM Plex Sans KR","Segoe UI",Helvetica,Arial,sans-serif;font-size:11px;font-weight:600;letter-spacing:.08em;fill:#0b6e6a}
      .l{fill:#0c1513;font-weight:600}
      .k{fill:#14211f;font-weight:600}
      .t{fill:#263230}
      .g{fill:#0b6e6a}
    </style>
  </defs>

  <rect width="766" height="362" fill="#ffffff"/>
  <rect width="766" height="4" fill="#0b6e6a"/>
  <rect x=".5" y=".5" width="765" height="361" fill="none" stroke="#d0d7de"/>
  <text class="eyebrow" x="24" y="26">WHAT THE BUNDLE HASH COVERS AND WHAT VERIFICATION REPEATS</text>

    <text><tspan class="l" x="24.0" y="46">EvidenceBundleV13Schema</tspan><tspan class="t" x="226.8" y="46">separate,</tspan><tspan class="t" x="304.8" y="46">opt-in</tspan><tspan class="t" x="359.4" y="46">bundleVersion</tspan><tspan class="t" x="468.6" y="46">"1.3"</tspan></text>
    <text><tspan class="l" x="24.0" y="67">bundleHash</tspan><tspan class="l" x="109.8" y="67">=</tspan><tspan class="l" x="125.4" y="67">SHA256(canonicalJson(bundle</tspan><tspan class="l" x="343.8" y="67">with</tspan><tspan class="l" x="382.8" y="67">only</tspan><tspan class="l" x="421.8" y="67">bundleHash</tspan><tspan class="l" x="507.6" y="67">omitted))</tspan><tspan class="t" x="601.2" y="67">evidenceBundleHash</tspan></text>
    <text><tspan class="t" x="39.6" y="88">covered</tspan><tspan class="t" x="141.0" y="88">source-artifact</tspan><tspan class="t" x="265.8" y="88">hash</tspan><tspan class="t" x="304.8" y="88">declarations</tspan><tspan class="g" x="406.2" y="88">·</tspan><tspan class="t" x="421.8" y="88">complete</tspan><tspan class="t" x="492.0" y="88">mapping</tspan><tspan class="t" x="554.4" y="88">and</tspan><tspan class="t" x="585.6" y="88">case</tspan><tspan class="t" x="624.6" y="88">proposals</tspan></text>
    <text><tspan class="g" x="141.0" y="109">·</tspan><tspan class="t" x="156.6" y="109">complete</tspan><tspan class="t" x="226.8" y="109">supplied</tspan><tspan class="t" x="297.0" y="109">approval</tspan><tspan class="t" x="367.2" y="109">records</tspan><tspan class="g" x="429.6" y="109">·</tspan><tspan class="t" x="445.2" y="109">workflowState</tspan></text>
    <text><tspan class="g" x="141.0" y="130">·</tspan><tspan class="t" x="156.6" y="130">event</tspan><tspan class="t" x="203.4" y="130">collection</tspan><tspan class="t" x="289.2" y="130">metadata</tspan><tspan class="g" x="359.4" y="130">·</tspan><tspan class="t" x="375.0" y="130">the</tspan><tspan class="t" x="406.2" y="130">claimed</tspan><tspan class="t" x="468.6" y="130">result</tspan><tspan class="t" x="523.2" y="130">and</tspan><tspan class="t" x="554.4" y="130">dataset</tspan><tspan class="t" x="616.8" y="130">hashes</tspan></text>
    <text><tspan class="t" x="39.6" y="151">excluded</tspan><tspan class="t" x="141.0" y="151">bundleHash</tspan><tspan class="t" x="226.8" y="151">itself,</tspan><tspan class="t" x="289.2" y="151">to</tspan><tspan class="t" x="312.6" y="151">avoid</tspan><tspan class="t" x="359.4" y="151">self-reference;</tspan><tspan class="t" x="484.2" y="151">nothing</tspan><tspan class="t" x="546.6" y="151">else</tspan></text>
    <text><tspan class="t" x="39.6" y="172">consequence</tspan><tspan class="t" x="141.0" y="172">a</tspan><tspan class="t" x="156.6" y="172">changed</tspan><tspan class="t" x="219.0" y="172">approval</tspan><tspan class="t" x="289.2" y="172">time</tspan><tspan class="t" x="328.2" y="172">changes</tspan><tspan class="t" x="390.6" y="172">bundleHash</tspan><tspan class="t" x="476.4" y="172">and</tspan><tspan class="t" x="507.6" y="172">leaves</tspan></text>
    <text><tspan class="t" x="141.0" y="193">canonicalResultHash</tspan><tspan class="t" x="297.0" y="193">unchanged</tspan></text>
    <text><tspan class="l" x="24.0" y="235">verifyBundle(bundle</tspan><tspan class="l" x="180.0" y="235">as</tspan><tspan class="l" x="203.4" y="235">untrusted</tspan><tspan class="l" x="281.4" y="235">input,</tspan><tspan class="l" x="336.0" y="235">separately</tspan><tspan class="l" x="421.8" y="235">supplied</tspan><tspan class="l" x="492.0" y="235">CSV/JSON</tspan><tspan class="l" x="562.2" y="235">Lines</tspan><tspan class="l" x="609.0" y="235">bytes)</tspan></text>
    <text><tspan class="t" x="39.6" y="256">strict</tspan><tspan class="t" x="94.2" y="256">shape</tspan><tspan class="g" x="141.0" y="256">→</tspan><tspan class="t" x="156.6" y="256">source</tspan><tspan class="t" x="211.2" y="256">byte</tspan><tspan class="t" x="250.2" y="256">hashes</tspan><tspan class="g" x="304.8" y="256">→</tspan><tspan class="t" x="320.4" y="256">re-parse</tspan><tspan class="t" x="390.6" y="256">rows</tspan><tspan class="g" x="429.6" y="256">→</tspan><tspan class="t" x="445.2" y="256">bind</tspan><tspan class="t" x="484.2" y="256">approvals</tspan><tspan class="t" x="562.2" y="256">to</tspan><tspan class="t" x="585.6" y="256">proposals</tspan></text>
    <text><tspan class="g" x="39.6" y="277">→</tspan><tspan class="t" x="55.2" y="277">replay</tspan><tspan class="t" x="109.8" y="277">the</tspan><tspan class="t" x="141.0" y="277">deterministic</tspan><tspan class="t" x="250.2" y="277">engine</tspan><tspan class="g" x="304.8" y="277">→</tspan><tspan class="t" x="320.4" y="277">compare</tspan><tspan class="t" x="382.8" y="277">dataset,</tspan><tspan class="t" x="453.0" y="277">result</tspan><tspan class="t" x="507.6" y="277">and</tspan><tspan class="t" x="538.8" y="277">bundle</tspan><tspan class="t" x="593.4" y="277">hashes</tspan></text>
    <text><tspan class="t" x="39.6" y="298">multi-mapping</tspan><tspan class="t" x="148.8" y="298">declaration</tspan><tspan class="g" x="242.4" y="298">→</tspan><tspan class="t" x="258.0" y="298">rejected</tspan><tspan class="t" x="328.2" y="298">until</tspan><tspan class="t" x="375.0" y="298">multi-source</tspan><tspan class="t" x="476.4" y="298">replay</tspan><tspan class="t" x="531.0" y="298">semantics</tspan><tspan class="t" x="609.0" y="298">exist</tspan></text>
    <text><tspan class="t" x="39.6" y="319">hash</tspan><tspan class="t" x="78.6" y="319">equality</tspan><tspan class="g" x="148.8" y="319">≠</tspan><tspan class="t" x="164.4" y="319">authenticity,</tspan><tspan class="t" x="273.6" y="319">reviewer</tspan><tspan class="t" x="343.8" y="319">authentication</tspan><tspan class="t" x="460.8" y="319">or</tspan><tspan class="t" x="484.2" y="319">signature</tspan></text>
</svg>
