<svg xmlns="http://www.w3.org/2000/svg" viewBox="0 0 750 362" role="img" aria-labelledby="t retained-files">
  <title id="t">What each retained file holds and how writes fail · 보관하는 파일이 담는 것과 쓰기 실패 규칙</title>
  <desc id="retained-files">page-N.response   original entity bytes, no reserialization; the decoder receives a copy,
                  so adapter parsing cannot mutate the retained or hashed HTTP entity
source.jsonl      every decoded item in page and item order, compact JSON.stringify per
                  item, LF separators, final LF for nonempty data; values and column
                  insertion order intact
rows.json         adds only source coordinates: the source SHA-256 and the one-based
                  physical line number; reproducible offline with
                  scripts/derive-published-rows.mjs
hashing           ordinary SHA-256 of UTF-8 bytes; no financial arithmetic
memory            the collector holds rows in memory; a storage or memory failure is an
                  acquisition failure, never permission to admit a partial series
writes            exclusive creation; existing directories and files are refused before
                  transport; a caught failure removes only what the invocation created and
                  tries to remove its directory, and cleanup failure stays an error

보관하는 파일이 담는 것과 쓰기 실패 규칙 도식입니다. 그림 안의 글자는 위 내용과 같습니다.</desc>
  <!--
    Generated by scripts/build-boundary-figures.mjs from boundary-figures.mjs.
    One file serves both languages: the words are identifiers, contract
    vocabulary and arrows, and each language brings its own alternative text.
    Literal hex, because CSS custom properties do not resolve inside a
    standalone SVG.
    #f7faf9 paper-1 | #ffffff paper-0 | #d0d7de ledger-rule
    #0c1513 ink-900 | #14211f ink-800 authorship-code | #263230 ink-700
    #0b6e6a teal-700 authorship-human
  -->
  <defs>
    <style>
      text{font-family:"JetBrains Mono","IBM Plex Mono",ui-monospace,SFMono-Regular,Consolas,monospace;font-size:13px;white-space:pre}
      .eyebrow{font-family:"IBM Plex Sans","IBM Plex Sans KR","Segoe UI",Helvetica,Arial,sans-serif;font-size:11px;font-weight:600;letter-spacing:.08em;fill:#0b6e6a}
      .l{fill:#0c1513;font-weight:600}
      .k{fill:#14211f;font-weight:600}
      .t{fill:#263230}
      .g{fill:#0b6e6a}
    </style>
  </defs>

  <rect width="750" height="362" fill="#ffffff"/>
  <rect width="750" height="4" fill="#0b6e6a"/>
  <rect x=".5" y=".5" width="749" height="361" fill="none" stroke="#d0d7de"/>
  <text class="eyebrow" x="24" y="26">WHAT EACH RETAINED FILE HOLDS AND HOW WRITES FAIL</text>

    <text><tspan class="l" x="24.0" y="46">page-N.response</tspan><tspan class="t" x="164.4" y="46">original</tspan><tspan class="t" x="234.6" y="46">entity</tspan><tspan class="t" x="289.2" y="46">bytes,</tspan><tspan class="t" x="343.8" y="46">no</tspan><tspan class="t" x="367.2" y="46">reserialization;</tspan><tspan class="t" x="499.8" y="46">the</tspan><tspan class="t" x="531.0" y="46">decoder</tspan><tspan class="t" x="593.4" y="46">receives</tspan><tspan class="t" x="663.6" y="46">a</tspan><tspan class="t" x="679.2" y="46">copy,</tspan></text>
    <text><tspan class="t" x="164.4" y="67">so</tspan><tspan class="t" x="187.8" y="67">adapter</tspan><tspan class="t" x="250.2" y="67">parsing</tspan><tspan class="t" x="312.6" y="67">cannot</tspan><tspan class="t" x="367.2" y="67">mutate</tspan><tspan class="t" x="421.8" y="67">the</tspan><tspan class="t" x="453.0" y="67">retained</tspan><tspan class="t" x="523.2" y="67">or</tspan><tspan class="t" x="546.6" y="67">hashed</tspan><tspan class="k" x="601.2" y="67">HTTP</tspan><tspan class="t" x="640.2" y="67">entity</tspan></text>
    <text><tspan class="l" x="24.0" y="88">source.jsonl</tspan><tspan class="t" x="164.4" y="88">every</tspan><tspan class="t" x="211.2" y="88">decoded</tspan><tspan class="t" x="273.6" y="88">item</tspan><tspan class="t" x="312.6" y="88">in</tspan><tspan class="t" x="336.0" y="88">page</tspan><tspan class="t" x="375.0" y="88">and</tspan><tspan class="t" x="406.2" y="88">item</tspan><tspan class="t" x="445.2" y="88">order,</tspan><tspan class="t" x="499.8" y="88">compact</tspan><tspan class="k" x="562.2" y="88">JSON.stringify</tspan><tspan class="t" x="679.2" y="88">per</tspan></text>
    <text><tspan class="t" x="164.4" y="109">item,</tspan><tspan class="t" x="211.2" y="109">LF</tspan><tspan class="t" x="234.6" y="109">separators,</tspan><tspan class="t" x="328.2" y="109">final</tspan><tspan class="t" x="375.0" y="109">LF</tspan><tspan class="t" x="398.4" y="109">for</tspan><tspan class="t" x="429.6" y="109">nonempty</tspan><tspan class="t" x="499.8" y="109">data;</tspan><tspan class="t" x="546.6" y="109">values</tspan><tspan class="t" x="601.2" y="109">and</tspan><tspan class="t" x="632.4" y="109">column</tspan></text>
    <text><tspan class="t" x="164.4" y="130">insertion</tspan><tspan class="t" x="242.4" y="130">order</tspan><tspan class="t" x="289.2" y="130">intact</tspan></text>
    <text><tspan class="l" x="24.0" y="151">rows.json</tspan><tspan class="t" x="164.4" y="151">adds</tspan><tspan class="t" x="203.4" y="151">only</tspan><tspan class="t" x="242.4" y="151">source</tspan><tspan class="t" x="297.0" y="151">coordinates:</tspan><tspan class="t" x="398.4" y="151">the</tspan><tspan class="t" x="429.6" y="151">source</tspan><tspan class="k" x="484.2" y="151">SHA-256</tspan><tspan class="t" x="546.6" y="151">and</tspan><tspan class="t" x="577.8" y="151">the</tspan><tspan class="t" x="609.0" y="151">one-based</tspan></text>
    <text><tspan class="t" x="164.4" y="172">physical</tspan><tspan class="t" x="234.6" y="172">line</tspan><tspan class="t" x="273.6" y="172">number;</tspan><tspan class="t" x="336.0" y="172">reproducible</tspan><tspan class="t" x="437.4" y="172">offline</tspan><tspan class="t" x="499.8" y="172">with</tspan></text>
    <text><tspan class="t" x="164.4" y="193">scripts/derive-published-rows.mjs</tspan></text>
    <text><tspan class="l" x="24.0" y="214">hashing</tspan><tspan class="t" x="164.4" y="214">ordinary</tspan><tspan class="k" x="234.6" y="214">SHA-256</tspan><tspan class="t" x="297.0" y="214">of</tspan><tspan class="k" x="320.4" y="214">UTF-8</tspan><tspan class="t" x="367.2" y="214">bytes;</tspan><tspan class="t" x="421.8" y="214">no</tspan><tspan class="t" x="445.2" y="214">financial</tspan><tspan class="t" x="523.2" y="214">arithmetic</tspan></text>
    <text><tspan class="l" x="24.0" y="235">memory</tspan><tspan class="t" x="164.4" y="235">the</tspan><tspan class="t" x="195.6" y="235">collector</tspan><tspan class="t" x="273.6" y="235">holds</tspan><tspan class="t" x="320.4" y="235">rows</tspan><tspan class="t" x="359.4" y="235">in</tspan><tspan class="t" x="382.8" y="235">memory;</tspan><tspan class="t" x="445.2" y="235">a</tspan><tspan class="t" x="460.8" y="235">storage</tspan><tspan class="t" x="523.2" y="235">or</tspan><tspan class="t" x="546.6" y="235">memory</tspan><tspan class="t" x="601.2" y="235">failure</tspan><tspan class="t" x="663.6" y="235">is</tspan><tspan class="t" x="687.0" y="235">an</tspan></text>
    <text><tspan class="t" x="164.4" y="256">acquisition</tspan><tspan class="t" x="258.0" y="256">failure,</tspan><tspan class="t" x="328.2" y="256">never</tspan><tspan class="t" x="375.0" y="256">permission</tspan><tspan class="t" x="460.8" y="256">to</tspan><tspan class="t" x="484.2" y="256">admit</tspan><tspan class="t" x="531.0" y="256">a</tspan><tspan class="t" x="546.6" y="256">partial</tspan><tspan class="t" x="609.0" y="256">series</tspan></text>
    <text><tspan class="l" x="24.0" y="277">writes</tspan><tspan class="t" x="164.4" y="277">exclusive</tspan><tspan class="t" x="242.4" y="277">creation;</tspan><tspan class="t" x="320.4" y="277">existing</tspan><tspan class="t" x="390.6" y="277">directories</tspan><tspan class="t" x="484.2" y="277">and</tspan><tspan class="t" x="515.4" y="277">files</tspan><tspan class="t" x="562.2" y="277">are</tspan><tspan class="t" x="593.4" y="277">refused</tspan><tspan class="t" x="655.8" y="277">before</tspan></text>
    <text><tspan class="t" x="164.4" y="298">transport;</tspan><tspan class="t" x="250.2" y="298">a</tspan><tspan class="t" x="265.8" y="298">caught</tspan><tspan class="t" x="320.4" y="298">failure</tspan><tspan class="t" x="382.8" y="298">removes</tspan><tspan class="t" x="445.2" y="298">only</tspan><tspan class="t" x="484.2" y="298">what</tspan><tspan class="t" x="523.2" y="298">the</tspan><tspan class="t" x="554.4" y="298">invocation</tspan><tspan class="t" x="640.2" y="298">created</tspan><tspan class="t" x="702.6" y="298">and</tspan></text>
    <text><tspan class="t" x="164.4" y="319">tries</tspan><tspan class="t" x="211.2" y="319">to</tspan><tspan class="t" x="234.6" y="319">remove</tspan><tspan class="t" x="289.2" y="319">its</tspan><tspan class="t" x="320.4" y="319">directory,</tspan><tspan class="t" x="406.2" y="319">and</tspan><tspan class="t" x="437.4" y="319">cleanup</tspan><tspan class="t" x="499.8" y="319">failure</tspan><tspan class="t" x="562.2" y="319">stays</tspan><tspan class="t" x="609.0" y="319">an</tspan><tspan class="t" x="632.4" y="319">error</tspan></text>
</svg>
